<?xml version="1.0" encoding="utf-8"?>
<!-- Generator: Adobe Illustrator 16.0.0, SVG Export Plug-In . SVG Version: 6.00 Build 0)  -->
<!DOCTYPE svg PUBLIC "-//W3C//DTD SVG 1.1//EN" "http://www.w3.org/Graphics/SVG/1.1/DTD/svg11.dtd">
<svg version="1.1" id="Layer_2" xmlns="http://www.w3.org/2000/svg" xmlns:xlink="http://www.w3.org/1999/xlink" x="0px" y="0px"
	 width="60px" height="60px" viewBox="0 0 60 60" enable-background="new 0 0 60 60" xml:space="preserve">
<g>
	<rect y="13.5" width="21" height="5"/>
	<rect y="27.667" width="16" height="4.667"/>
	<rect y="41.5" width="10" height="5"/>
</g>
<g>
	<path d="M41.639,25.453c-7.694,0-14.45-1.279-18.364-3.919v22.833l0,0c0,3.384,8.503,6.123,18.364,6.123
		C51.495,50.49,60,47.751,60,44.369l0,0V21.535C56.086,24.174,49.33,25.453,41.639,25.453z"/>
	<path d="M41.639,9.683c9.856,0,17.851,2.74,17.851,6.122c0,3.381-7.991,6.12-17.851,6.12c-9.861,0-17.854-2.74-17.854-6.12
		C23.785,12.423,31.778,9.683,41.639,9.683z"/>
</g>
</svg>
