<?xml version="1.0" encoding="utf-8"?>
<!-- Generator: Adobe Illustrator 16.0.0, SVG Export Plug-In . SVG Version: 6.00 Build 0)  -->
<!DOCTYPE svg PUBLIC "-//W3C//DTD SVG 1.1//EN" "http://www.w3.org/Graphics/SVG/1.1/DTD/svg11.dtd">
<svg version="1.1" id="Layer_2" xmlns="http://www.w3.org/2000/svg" xmlns:xlink="http://www.w3.org/1999/xlink" x="0px" y="0px"
	 width="60px" height="60px" viewBox="0 0 60 60" enable-background="new 0 0 60 60" xml:space="preserve">
<g>
	<rect y="13" width="24" height="5"/>
	<rect y="27.167" width="17" height="4.667"/>
	<rect y="42" width="10" height="5"/>
</g>
<g>
	<path d="M43.325,27.254c-6.986,0-13.121-1.162-16.675-3.559V44.43l0,0c0,3.072,7.722,5.56,16.675,5.56S60,47.502,60,44.431l0,0
		V23.696C56.445,26.092,50.31,27.254,43.325,27.254z"/>
	<path d="M43.325,12.933c8.953,0,16.211,2.488,16.211,5.559c0,3.071-7.257,5.558-16.211,5.558s-16.212-2.488-16.212-5.558
		C27.113,15.421,34.372,12.933,43.325,12.933z"/>
</g>
</svg>
