<?xml version="1.0" encoding="utf-8"?>
<!-- Generator: Adobe Illustrator 16.0.0, SVG Export Plug-In . SVG Version: 6.00 Build 0)  -->
<!DOCTYPE svg PUBLIC "-//W3C//DTD SVG 1.1//EN" "http://www.w3.org/Graphics/SVG/1.1/DTD/svg11.dtd">
<svg version="1.1" id="Layer_2" xmlns="http://www.w3.org/2000/svg" xmlns:xlink="http://www.w3.org/1999/xlink" x="0px" y="0px"
	 width="60px" height="60px" viewBox="0 0 60 60" enable-background="new 0 0 60 60" xml:space="preserve">
<path d="M38.607,8.145c-5.875,0-10.638,4.765-10.638,10.639c0,5.877,4.763,10.639,10.638,10.639c5.876,0,10.64-4.761,10.64-10.639
	C49.247,12.908,44.483,8.145,38.607,8.145z M49.542,29.734c-2.865,2.676-6.703,4.327-10.935,4.327c-4.23,0-8.068-1.651-10.935-4.327
	c-6.103,2.271-10.457,8.131-10.457,15.023v5.348H60v-5.348C60,37.865,55.646,32.006,49.542,29.734z"/>
<g>
	<rect y="13.5" width="21" height="5"/>
	<rect y="27.667" width="16" height="4.667"/>
	<rect y="40.5" width="10" height="5"/>
</g>
</svg>
