<?xml version="1.0" encoding="utf-8"?>
<!-- Generator: Adobe Illustrator 16.0.0, SVG Export Plug-In . SVG Version: 6.00 Build 0)  -->
<!DOCTYPE svg PUBLIC "-//W3C//DTD SVG 1.1//EN" "http://www.w3.org/Graphics/SVG/1.1/DTD/svg11.dtd">
<svg version="1.1" id="Layer_2" xmlns="http://www.w3.org/2000/svg" xmlns:xlink="http://www.w3.org/1999/xlink" x="0px" y="0px"
	 width="60px" height="60px" viewBox="0 0 60 60" enable-background="new 0 0 60 60" xml:space="preserve">
<path d="M31,38.852c-0.991,0-1.938-0.195-2.815-0.537l8.273-8.273c0.798-0.003,1.562-0.168,2.263-0.458
	c0.084,0.46,0.135,0.933,0.135,1.414C38.855,35.305,35.309,38.852,31,38.852z M28.419,21.171c-4.041,0.303-7.274,3.714-7.274,7.826
	c0,0.993,0.196,1.941,0.539,2.819l7.258-7.258c-0.381-0.794-0.602-1.677-0.602-2.609C28.34,21.683,28.386,21.428,28.419,21.171z
	 M49.517,16.983l-5.952,5.953c1.495,2.327,1.373,4.09,1.373,7.064c0,8.255-6.683,14.938-14.938,14.938
	c-2.974,0-4.737,0.122-7.064-1.373l-5.45,5.449c4.062,2.77,7.651,3.736,12.514,3.736C46.568,52.75,60,30,60,30
	S56.506,23.399,49.517,16.983z M15.062,30c0-8.255,6.683-14.938,14.938-14.938c2.975,0,4.737-0.122,7.064,1.374l5.449-5.45
	C38.452,8.216,34.863,7.25,30,7.25C13.432,7.25,0,30,0,30s3.495,6.601,10.484,13.017l5.952-5.952
	C14.94,34.737,15.062,32.975,15.062,30z M27.926,35.187l9.401-9.401l8.075-8.074l6.765-6.764l4.958-4.958l-3.113-3.114l-5.53,5.529
	l-6.192,6.193l-9.23,9.23l-8.248,8.247l-5.963,5.964l-6.764,6.764l-9.209,9.209l3.114,3.113l9.779-9.78l6.193-6.192L27.926,35.187z"
	/>
</svg>
