<?xml version="1.0" encoding="utf-8"?>
<!-- Generator: Adobe Illustrator 16.0.0, SVG Export Plug-In . SVG Version: 6.00 Build 0)  -->
<!DOCTYPE svg PUBLIC "-//W3C//DTD SVG 1.1//EN" "http://www.w3.org/Graphics/SVG/1.1/DTD/svg11.dtd">
<svg version="1.1" id="Layer_2" xmlns="http://www.w3.org/2000/svg" xmlns:xlink="http://www.w3.org/1999/xlink" x="0px" y="0px"
	 width="60px" height="60px" viewBox="0 0 60 60" enable-background="new 0 0 60 60" xml:space="preserve">
<path d="M46.504,15h6.432V6.429h-6.432l0,0h-8.57l0,0h-6.43V15h6.43 M37.934,27.857c0,5.17-0.603,5.665-1.929,6.737
	c-0.991,0.803-2.974,0.949-5.276,1.111c-1.272,0.094-5.743,0.201-7.215,0.441c-1.259,0.203-2.465,0.631-3.591,1.18V15.991
	c2.559-1.486,4.286-4.246,4.286-7.419C24.208,3.843,20.365,0,15.637,0S7.066,3.843,7.066,8.571c0,3.174,1.728,5.933,4.285,7.419
	v28.02c-2.558,1.484-4.285,4.246-4.285,7.42c0,4.728,3.844,8.57,8.571,8.57c4.729,0,8.571-3.844,8.571-8.57
	c0-2.104-0.763-4.033-2.009-5.52c0.896-0.643,1.862-1.164,2.705-1.299c1.085-0.174,5.234-0.254,6.439-0.348
	c3.267-0.228,6.978-0.496,10.071-3.013c4.139-3.362,5.021-6.979,5.089-12.711l0,0v-0.684L37.934,27.857L37.934,27.857z"/>
</svg>
