<?xml version="1.0" encoding="utf-8"?>
<!-- Generator: Adobe Illustrator 16.0.0, SVG Export Plug-In . SVG Version: 6.00 Build 0)  -->
<!DOCTYPE svg PUBLIC "-//W3C//DTD SVG 1.1//EN" "http://www.w3.org/Graphics/SVG/1.1/DTD/svg11.dtd">
<svg version="1.1" id="Layer_2" xmlns="http://www.w3.org/2000/svg" xmlns:xlink="http://www.w3.org/1999/xlink" x="0px" y="0px"
	 width="60px" height="60px" viewBox="0 0 60 60" enable-background="new 0 0 60 60" xml:space="preserve">
<g>
	<rect y="13.5" width="21" height="5"/>
	<rect y="27.667" width="16" height="4.667"/>
	<rect y="40.5" width="10" height="5"/>
</g>
<g>
	<path d="M42.24,26.088c-7.443,0-13.977-1.287-17.763-3.944v22.974l0,0c0,3.404,8.225,6.16,17.763,6.16
		c9.533,0,17.76-2.756,17.76-6.158l0,0V22.146C56.214,24.801,49.68,26.088,42.24,26.088z"/>
	<path d="M42.24,10.222c9.533,0,17.267,2.756,17.267,6.159c0,3.402-7.73,6.158-17.267,6.158c-9.539,0-17.27-2.756-17.27-6.158
		C24.97,12.978,32.702,10.222,42.24,10.222z"/>
</g>
</svg>
